<?xml version="1.0" encoding="UTF-8"?>
<svg width="24" height="24" viewBox="0 0 512 512" xmlns="http://www.w3.org/2000/svg">
  <path fill="#009b3a" d="M0 0h512v512H0z"/>
  <path fill="#fedf00" d="M256 19.2l229.5 236.8L256 492.8 26.5 256z"/>
  <circle fill="#002776" cx="256" cy="256" r="97"/>
  <path fill="#fff" d="M256 160c-53 0-96 43-96 96s43 96 96 96 96-43 96-96-43-96-96-96zm0 168c-39.8 0-72-32.2-72-72s32.2-72 72-72 72 32.2 72 72-32.2 72-72 72z"/>
  <path fill="#fff" d="M256 208c26.5 0 48 21.5 48 48s-21.5 48-48 48-48-21.5-48-48 21.5-48 48-48z"/>
</svg>
