<?xml version="1.0" encoding="UTF-8"?>
<svg width="24" height="24" viewBox="0 0 512 512" xmlns="http://www.w3.org/2000/svg">
  <path fill="#fff" d="M0 0h512v512H0z"/>
  <g fill="#bf0a30">
    <path d="M0 0h512v39.4H0zm0 78.8h512v39.4H0zm0 78.7h512V197H0zm0 78.8h512v39.4H0zm0 78.7h512v39.4H0zm0 78.8h512v39.4H0zm0 78.8h512V512H0z"/>
  </g>
  <path fill="#002868" d="M0 0h256v275.7H0z"/>
  <g fill="#fff">
    <path d="M24.7 44.3l-5.2 15.4h-16.3l13.2 9.3-5.1 15.4 13.2-9.3 13.2 9.3-5.1-15.4 13.2-9.3H29.5zm49.4 0l-5.2 15.4H52.6l13.2 9.3-5.1 15.4 13.2-9.3 13.2 9.3-5.1-15.4 13.2-9.3H78.9zm49.4 0l-5.2 15.4h-16.3l13.2 9.3-5.1 15.4 13.2-9.3 13.2 9.3-5.1-15.4 13.2-9.3h-16.3zm49.4 0l-5.2 15.4h-16.3l13.2 9.3-5.1 15.4 13.2-9.3 13.2 9.3-5.1-15.4 13.2-9.3h-16.3zm49.4 0l-5.2 15.4h-16.3l13.2 9.3-5.1 15.4 13.2-9.3 13.2 9.3-5.1-15.4 13.2-9.3h-16.3zM49.4 88.6l-5.2 15.4H27.9l13.2 9.3-5.1 15.4 13.2-9.3 13.2 9.3-5.1-15.4 13.2-9.3H54.2zm49.4 0l-5.2 15.4H77.3l13.2 9.3-5.1 15.4 13.2-9.3 13.2 9.3-5.1-15.4 13.2-9.3h-16.3zm49.4 0l-5.2 15.4h-16.3l13.2 9.3-5.1 15.4 13.2-9.3 13.2 9.3-5.1-15.4 13.2-9.3h-16.3zm49.4 0l-5.2 15.4h-16.3l13.2 9.3-5.1 15.4 13.2-9.3 13.2 9.3-5.1-15.4 13.2-9.3h-16.3zM24.7 133l-5.2 15.4H3.2l13.2 9.3-5.1 15.4 13.2-9.3 13.2 9.3-5.1-15.4 13.2-9.3H29.5zm49.4 0l-5.2 15.4H52.6l13.2 9.3-5.1 15.4 13.2-9.3 13.2 9.3-5.1-15.4 13.2-9.3H78.9zm49.4 0l-5.2 15.4h-16.3l13.2 9.3-5.1 15.4 13.2-9.3 13.2 9.3-5.1-15.4 13.2-9.3h-16.3zm49.4 0l-5.2 15.4h-16.3l13.2 9.3-5.1 15.4 13.2-9.3 13.2 9.3-5.1-15.4 13.2-9.3h-16.3zm49.4 0l-5.2 15.4h-16.3l13.2 9.3-5.1 15.4 13.2-9.3 13.2 9.3-5.1-15.4 13.2-9.3h-16.3zM49.4 177.3l-5.2 15.4H27.9l13.2 9.3-5.1 15.4 13.2-9.3 13.2 9.3-5.1-15.4 13.2-9.3H54.2zm49.4 0l-5.2 15.4H77.3l13.2 9.3-5.1 15.4 13.2-9.3 13.2 9.3-5.1-15.4 13.2-9.3h-16.3zm49.4 0l-5.2 15.4h-16.3l13.2 9.3-5.1 15.4 13.2-9.3 13.2 9.3-5.1-15.4 13.2-9.3h-16.3zm49.4 0l-5.2 15.4h-16.3l13.2 9.3-5.1 15.4 13.2-9.3 13.2 9.3-5.1-15.4 13.2-9.3h-16.3zM24.7 221.7l-5.2 15.4H3.2l13.2 9.3-5.1 15.4 13.2-9.3 13.2 9.3-5.1-15.4 13.2-9.3H29.5zm49.4 0l-5.2 15.4H52.6l13.2 9.3-5.1 15.4 13.2-9.3 13.2 9.3-5.1-15.4 13.2-9.3H78.9zm49.4 0l-5.2 15.4h-16.3l13.2 9.3-5.1 15.4 13.2-9.3 13.2 9.3-5.1-15.4 13.2-9.3h-16.3zm49.4 0l-5.2 15.4h-16.3l13.2 9.3-5.1 15.4 13.2-9.3 13.2 9.3-5.1-15.4 13.2-9.3h-16.3zm49.4 0l-5.2 15.4h-16.3l13.2 9.3-5.1 15.4 13.2-9.3 13.2 9.3-5.1-15.4 13.2-9.3h-16.3z"/>
  </g>
</svg>
